<svg id="7d375167-a9c7-4f60-b923-d4c680b29bdb" data-name="Layer 1" xmlns="http://www.w3.org/2000/svg" viewBox="0 0 1368.82 161.57"><title>Artboard 1</title><path d="M0,10.35H56.4c30.46,0,51.51,14.1,51.51,46.63,0,33.46-18,48.13-50.19,48.13H36.85v47H0ZM36.85,75.4h6.2c13.35,0,26.51,0,26.51-17.3,0-17.86-12.22-18-26.51-18h-6.2Z"/><path d="M214.32,65.06V10.35h36.85V152.11H214.32V94h-53.2v58.1H124.27V10.35h36.85V65.06Z"/><path d="M442,10.35h36.85L546.33,97h.37V10.35h36.85V152.11H546.7L479.21,65.25h-.38v86.86H442Z"/><path d="M644.46,41.56V65.25H686V96.46H644.46V120.9h43.81v31.21H607.61V10.35h80.66V41.56Z"/><path d="M775.49,152.11V10.35h52.64c25.19,0,42.12,9.78,42.12,36.85,0,12.79-4.14,23.13-15.61,29v.38c20.31,2.63,29,16.36,29,36.1,0,29.7-25.38,39.48-51.32,39.48ZM812.34,66h4.14c9.77,0,19.92-1.69,19.92-13.72,0-13-11.46-13.73-21.43-13.73h-2.63Zm0,57.91H817c10.9,0,29.33.56,29.33-15,0-17.11-18.24-15.42-30.27-15.42h-3.76Z"/><path d="M1318.06,10.35h45.68l-56.4,67.12,61.48,74.64h-47.76L1273.5,90.63h-.38v61.48h-36.85V10.35h36.85V68.82h.38Z"/><path d="M411.84,97.13h-.33a5,5,0,0,1-4.68-5.33A63.45,63.45,0,0,0,402.3,64.4a74,74,0,0,0-40.73-40.73,63.48,63.48,0,0,0-27.4-4.54,5,5,0,1,1-.65-10,73.57,73.57,0,0,1,31.75,5.22A84.09,84.09,0,0,1,411.61,60.7a73.72,73.72,0,0,1,5.22,31.75A5,5,0,0,1,411.84,97.13Z"/><path d="M391.85,95.82h-.33a5,5,0,0,1-4.67-5.32c.82-12.62-4.77-26.23-15-36.42s-23.8-15.77-36.42-15a5,5,0,1,1-.66-10c15.46-1,32,5.67,44.16,17.86s18.87,28.7,17.86,44.15A5,5,0,0,1,391.85,95.82Z"/><path d="M324.86,65.35l.68-.68a15,15,0,0,0,.26-21.11L306.71,24.47a14.54,14.54,0,0,0-10.32-4.23,15.2,15.2,0,0,0-10.79,4.49l-.26.28-.37.44Z"/><path d="M353.54,108.18c-3.9-1-12.69-4.07-22.19-13.56s-12.59-18.29-13.56-22.19L278.87,33.52c-3.62,5.54-5.72,10.63-6.34,15.42,0,0,0,.07,0,.11-.16,1.5-.75,9.62,3.22,22,5.21,16.32,15.7,32.45,31.19,47.94,13.57,13.57,27.74,23.36,42.11,29.1,11.84,4.73,20.79,5.43,25.07,5.43a26.6,26.6,0,0,0,2.8-.12H377c4.78-.63,9.88-2.72,15.42-6.35Z"/><path d="M361.29,100.43l-.67.67,39.9,39.9.43-.37.29-.26a15,15,0,0,0,.25-21.12L382.4,100.16a14.5,14.5,0,0,0-10.31-4.23A15.18,15.18,0,0,0,361.29,100.43Z"/><path d="M1038.84,97.13h-.33a5,5,0,0,1-4.68-5.33,63.45,63.45,0,0,0-4.53-27.39,74,74,0,0,0-40.73-40.73,63.48,63.48,0,0,0-27.4-4.54,5,5,0,0,1-.65-10,73.57,73.57,0,0,1,31.75,5.22,84.09,84.09,0,0,1,46.34,46.34,73.72,73.72,0,0,1,5.22,31.75A5,5,0,0,1,1038.84,97.13Z"/><path d="M1018.85,95.82h-.33a5,5,0,0,1-4.67-5.32c.82-12.62-4.77-26.23-15-36.42s-23.8-15.77-36.42-15a5,5,0,1,1-.66-10c15.46-1,32,5.67,44.16,17.86s18.87,28.7,17.86,44.15A5,5,0,0,1,1018.85,95.82Z"/><path d="M951.86,65.35l.68-.68a15,15,0,0,0,.26-21.11L933.71,24.47a14.54,14.54,0,0,0-10.32-4.23,15.2,15.2,0,0,0-10.79,4.49l-.26.28-.37.44Z"/><path d="M980.54,108.18c-3.9-1-12.69-4.07-22.19-13.56s-12.59-18.29-13.56-22.19L905.87,33.52c-3.62,5.54-5.72,10.63-6.34,15.42,0,0,0,.07,0,.11-.16,1.5-.75,9.62,3.22,22,5.21,16.32,15.7,32.45,31.19,47.94,13.57,13.57,27.74,23.36,42.11,29.1,11.84,4.73,20.79,5.43,25.07,5.43a26.6,26.6,0,0,0,2.8-.12h.12c4.78-.63,9.88-2.72,15.42-6.35Z"/><path d="M988.29,100.43l-.67.67,39.9,39.9.43-.37.29-.26a15,15,0,0,0,.25-21.12l-19.09-19.09a14.5,14.5,0,0,0-10.31-4.23A15.18,15.18,0,0,0,988.29,100.43Z"/><path d="M1200.84,97.13h-.33a5,5,0,0,1-4.68-5.33,63.45,63.45,0,0,0-4.53-27.39,74,74,0,0,0-40.73-40.73,63.48,63.48,0,0,0-27.4-4.54,5,5,0,1,1-.65-10,73.57,73.57,0,0,1,31.75,5.22,84.09,84.09,0,0,1,46.34,46.34,73.72,73.72,0,0,1,5.22,31.75A5,5,0,0,1,1200.84,97.13Z"/><path d="M1180.85,95.82h-.33a5,5,0,0,1-4.67-5.32c.82-12.62-4.77-26.23-14.95-36.42s-23.8-15.77-36.42-15a5,5,0,1,1-.66-10c15.46-1,32,5.67,44.16,17.86s18.87,28.7,17.86,44.15A5,5,0,0,1,1180.85,95.82Z"/><path d="M1113.86,65.35l.68-.68a15,15,0,0,0,.26-21.11l-19.09-19.09a14.54,14.54,0,0,0-10.32-4.23,15.2,15.2,0,0,0-10.79,4.49l-.26.28-.37.44Z"/><path d="M1142.54,108.18c-3.9-1-12.69-4.07-22.19-13.56s-12.59-18.29-13.56-22.19l-38.92-38.91c-3.62,5.54-5.72,10.63-6.34,15.42,0,0,0,.07,0,.11-.16,1.5-.75,9.62,3.22,22,5.21,16.32,15.7,32.45,31.19,47.94,13.57,13.57,27.74,23.36,42.11,29.1,11.84,4.73,20.79,5.43,25.07,5.43a26.6,26.6,0,0,0,2.8-.12h.12c4.78-.63,9.88-2.72,15.42-6.35Z"/><path d="M1150.29,100.43l-.67.67,39.9,39.9.43-.37.29-.26a15,15,0,0,0,.25-21.12l-19.09-19.09a14.5,14.5,0,0,0-10.31-4.23A15.18,15.18,0,0,0,1150.29,100.43Z"/></svg>